<svg width="90" height="188" viewBox="0 0 90 188" fill="none" xmlns="http://www.w3.org/2000/svg">
<path d="M2.77515 0.701913C2.06149 0.281223 1.14192 0.518723 0.721231 1.23238C0.300541 1.94604 0.538041 2.86562 1.2517 3.28631L2.77515 0.701913ZM40.6746 39.6664L41.9676 38.9061L40.6746 39.6664ZM46.5 78L45.1322 77.3843L46.5 78ZM39.8346 85.4996L40.3701 86.9008L40.5526 86.831L40.7111 86.7168L39.8346 85.4996ZM21 82L21.8672 80.7761L21.8672 80.7761L21 82ZM10.5 66.5L9.06627 66.9409L9.06627 66.9409L10.5 66.5ZM12.2291 46.9956L13.5501 47.7061L13.58 47.6505L13.6051 47.5927L12.2291 46.9956ZM48.0051 59.0008L48.9363 57.8249L48.9363 57.8249L48.0051 59.0008ZM75.5548 98.8937L74.1773 99.4872L75.5548 98.8937ZM82.9916 152.006L81.4923 151.96L82.9916 152.006ZM76.2094 182.338L77.6828 182.619L76.2094 182.338ZM73.5635 186.479C73.8254 187.265 74.6748 187.69 75.4607 187.428L88.2686 183.161C89.0545 182.899 89.4794 182.049 89.2176 181.263C88.9557 180.477 88.1063 180.053 87.3203 180.314L75.9356 184.108L72.1425 172.723C71.8806 171.937 71.0312 171.512 70.2453 171.774C69.4593 172.036 69.0345 172.885 69.2963 173.671L73.5635 186.479ZM1.2517 3.28631C6.4988 6.37937 14.4634 12.9791 21.9554 20.2191C29.4558 27.4673 36.2934 35.1752 39.3816 40.4267L41.9676 38.9061C38.6604 33.282 31.5701 25.3385 24.0401 18.0618C16.5017 10.777 8.33339 3.97839 2.77515 0.701913L1.2517 3.28631ZM39.3816 40.4267C42.1855 45.195 44.7939 51.9262 46.101 58.7734C47.4151 65.657 47.3685 72.4167 45.1322 77.3843L47.8678 78.6157C50.4736 72.8272 50.4094 65.3434 49.0478 58.2109C47.6793 51.0421 44.9539 43.9845 41.9676 38.9061L39.3816 40.4267ZM45.1322 77.3843C44.5918 78.5846 44.0354 79.5769 43.1527 80.6164C42.2573 81.6709 40.9835 82.8238 38.958 84.2824L40.7111 86.7168C42.8511 85.1758 44.3323 83.8621 45.4395 82.5582C46.5593 81.2395 47.2528 79.9818 47.8678 78.6157L45.1322 77.3843ZM39.2991 84.0985C35.9338 85.3846 33.0307 85.5414 30.2889 84.9234C27.5122 84.2976 24.8008 82.8547 21.8672 80.7761L20.1328 83.2239C23.2179 85.4098 26.3035 87.1004 29.6293 87.85C32.9899 88.6075 36.4948 88.3819 40.3701 86.9008L39.2991 84.0985ZM21.8672 80.7761C16.4672 76.9499 13.9834 72.7241 11.9337 66.0591L9.06627 66.9409C11.2493 74.0394 14.0443 78.9099 20.1328 83.2239L21.8672 80.7761ZM11.9337 66.0591C10.075 60.015 10.5264 53.3287 13.5501 47.7061L10.908 46.2851C7.47361 52.6713 6.99139 60.1941 9.06627 66.9409L11.9337 66.0591ZM13.6051 47.5927C14.0466 46.5752 14.7088 45.9754 15.5572 45.631C16.4544 45.2667 17.6544 45.1534 19.1633 45.3334C22.198 45.6953 26.0014 47.1805 29.9163 49.1748C37.7049 53.1425 45.3692 58.8268 47.0739 60.1767L48.9363 57.8249C47.1504 56.4106 39.3121 50.5945 31.2781 46.5017C27.2817 44.4659 23.0938 42.7808 19.5186 42.3545C17.7225 42.1403 15.963 42.2284 14.4287 42.8513C12.8455 43.494 11.6043 44.6671 10.853 46.3985L13.6051 47.5927ZM47.0739 60.1767C60.4649 70.7812 67.4684 83.9165 74.1773 99.4872L76.9324 98.3002C70.1723 82.6105 62.9282 68.9051 48.9363 57.8249L47.0739 60.1767ZM74.1773 99.4872C81.4947 116.471 82.0739 133.049 81.4923 151.96L84.4909 152.052C85.0751 133.056 84.5238 115.919 76.9324 98.3002L74.1773 99.4872ZM81.4923 151.96C81.3348 157.081 80.1713 161.95 78.7693 166.894C77.3812 171.788 75.7316 176.834 74.7359 182.057L77.6828 182.619C78.6456 177.568 80.2238 172.76 81.6555 167.712C83.0732 162.713 84.3216 157.554 84.4909 152.052L81.4923 151.96ZM74.7359 182.057C74.4591 183.509 74.2352 184.154 73.6451 185.334L76.3282 186.676C77.0463 185.24 77.3563 184.332 77.6828 182.619L74.7359 182.057Z" fill="black"/>
</svg>
