<svg width="1394" height="638" viewBox="0 0 1394 638" fill="none" xmlns="http://www.w3.org/2000/svg">
<path opacity="0.2" d="M1497.81 1L0.999973 729.783" stroke="black"/>
<path opacity="0.2" d="M1585.86 43.8696L89.0478 772.652" stroke="black"/>
<path opacity="0.2" d="M1673.9 86.7391L177.096 815.522" stroke="black"/>
<path opacity="0.2" d="M1761.95 129.609L265.143 858.391" stroke="black"/>
<path opacity="0.2" d="M1850 172.478L353.19 901.261" stroke="black"/>
<path opacity="0.2" d="M1938.04 215.348L441.237 944.131" stroke="black"/>
<path opacity="0.2" d="M2026.09 258.217L529.285 987" stroke="black"/>
<path opacity="0.2" d="M2114.14 301.087L617.333 1029.87" stroke="black"/>
<path opacity="0.2" d="M2202.19 343.957L705.381 1072.74" stroke="black"/>
<path opacity="0.2" d="M2290.23 386.826L793.427 1115.61" stroke="black"/>
<path opacity="0.2" d="M2378.28 429.696L881.475 1158.48" stroke="black"/>
<path opacity="0.2" d="M2466.33 472.565L969.522 1201.35" stroke="black"/>
<path opacity="0.2" d="M2554.38 515.435L1057.57 1244.22" stroke="black"/>
<path opacity="0.2" d="M2642.43 558.304L1145.62 1287.09" stroke="black"/>
<path opacity="0.2" d="M2730.47 601.174L1233.67 1329.96" stroke="black"/>
<path opacity="0.2" d="M1321.71 86.7391L2818.52 815.522" stroke="black"/>
<path opacity="0.2" d="M1233.67 129.609L2730.47 858.391" stroke="black"/>
<path opacity="0.2" d="M1145.62 172.478L2642.43 901.261" stroke="black"/>
<path opacity="0.2" d="M1057.57 215.348L2554.38 944.131" stroke="black"/>
<path opacity="0.2" d="M969.523 258.217L2466.33 987" stroke="black"/>
<path opacity="0.2" d="M881.475 301.087L2378.28 1029.87" stroke="black"/>
<path opacity="0.2" d="M793.428 343.957L2290.24 1072.74" stroke="black"/>
<path opacity="0.2" d="M705.397 386.826L2202.2 1115.61" stroke="black"/>
<path opacity="0.2" d="M617.35 429.696L2114.16 1158.48" stroke="black"/>
<path opacity="0.2" d="M529.303 472.565L2026.11 1201.35" stroke="black"/>
<path opacity="0.2" d="M441.255 515.435L1938.06 1244.22" stroke="black"/>
<path opacity="0.2" d="M353.208 558.304L1850.02 1287.09" stroke="black"/>
<path opacity="0.2" d="M265.16 601.174L1761.97 1329.96" stroke="black"/>
</svg>
